<?xml version="1.0"?><svg width="730.03" height="628.19" xmlns="http://www.w3.org/2000/svg">

 <g display="inline">
  <title>Layer 2</title>
  <g id="g1402">
   <path fill="#ff007f" stroke="#ffffff" id="path1404" d="m140.865005,33.943001c-41.335007,0 -64.571007,21.370998 -64.571007,65.035995l0,450.122017c0,40.842957 20.890999,62.227966 62.191994,62.227966l452.024017,0c41.302979,0 62.226013,-20.320007 62.226013,-62.227966l0,-450.122017c0,-42.599995 -20.923035,-65.035995 -63.52301,-65.035995c0,0 -448.491013,-0.142002 -448.348007,0z"/>
  </g>
 </g>
 <g display="inline">
  <title>Layer 1</title>
  <g id="g8564">
   <g id="g1406">
    <path stroke-width="13" fill="#ff007f" stroke="#ffffff" id="path1408" d="m569.372009,461.471985l0,-300.81398l-408.714005,0l0,300.81398l408.714005,0z"/>
    <path stroke-width="13" stroke="#ffffff" id="path1410" d="m365.014008,311.06601"/>
    <path stroke-width="13" fill="#ff007f" stroke="#ffffff" id="path1412" d="m164.460007,164.490005l176.319992,178.667984c13.069,13.170013 36.847992,13.014008 49.640991,0.120026l176.199005,-177.350021"/>
    <path fill="black" stroke-width="13" stroke="#ffffff" id="path1414" d="m165.514008,455.56601l140.095001,-142.106018"/>
    <path fill="black" stroke-width="13" stroke="#ffffff" id="path1416" d="m562.966003,453.973999l-136.451996,-138.598999"/>
   </g>
  </g>
 </g>
</svg>